<svg width="101" height="52" viewBox="0 0 101 52" fill="none" xmlns="http://www.w3.org/2000/svg">
<path d="M58.12 29V17.48H62.88C62.992 17.48 63.136 17.4853 63.312 17.496C63.488 17.5013 63.6507 17.5173 63.8 17.544C64.4667 17.6453 65.016 17.8667 65.448 18.208C65.8853 18.5493 66.208 18.9813 66.416 19.504C66.6293 20.0213 66.736 20.5973 66.736 21.232C66.736 22.1707 66.4987 22.9787 66.024 23.656C65.5493 24.328 64.8213 24.744 63.84 24.904L63.016 24.976H60.048V29H58.12ZM64.736 29L62.464 24.312L64.424 23.88L66.92 29H64.736ZM60.048 23.176H62.8C62.9067 23.176 63.0267 23.1707 63.16 23.16C63.2933 23.1493 63.416 23.128 63.528 23.096C63.848 23.016 64.0987 22.8747 64.28 22.672C64.4667 22.4693 64.5973 22.24 64.672 21.984C64.752 21.728 64.792 21.4773 64.792 21.232C64.792 20.9867 64.752 20.736 64.672 20.48C64.5973 20.2187 64.4667 19.9867 64.28 19.784C64.0987 19.5813 63.848 19.44 63.528 19.36C63.416 19.328 63.2933 19.3093 63.16 19.304C63.0267 19.2933 62.9067 19.288 62.8 19.288H60.048V23.176ZM72.6105 29.24C71.7358 29.24 70.9678 29.0507 70.3065 28.672C69.6452 28.2933 69.1278 27.768 68.7545 27.096C68.3865 26.424 68.2025 25.6507 68.2025 24.776C68.2025 23.832 68.3838 23.0133 68.7465 22.32C69.1092 21.6213 69.6132 21.08 70.2585 20.696C70.9038 20.312 71.6505 20.12 72.4985 20.12C73.3945 20.12 74.1545 20.3307 74.7785 20.752C75.4078 21.168 75.8745 21.7573 76.1785 22.52C76.4825 23.2827 76.5972 24.1813 76.5225 25.216H74.6105V24.512C74.6052 23.5733 74.4398 22.888 74.1145 22.456C73.7892 22.024 73.2772 21.808 72.5785 21.808C71.7892 21.808 71.2025 22.0533 70.8185 22.544C70.4345 23.0293 70.2425 23.7413 70.2425 24.68C70.2425 25.5547 70.4345 26.232 70.8185 26.712C71.2025 27.192 71.7625 27.432 72.4985 27.432C72.9732 27.432 73.3812 27.328 73.7225 27.12C74.0692 26.9067 74.3358 26.6 74.5225 26.2L76.4265 26.776C76.0958 27.5547 75.5838 28.16 74.8905 28.592C74.2025 29.024 73.4425 29.24 72.6105 29.24ZM69.6345 25.216V23.76H75.5785V25.216H69.6345ZM82.0595 29.24C81.1688 29.24 80.4088 29.0427 79.7795 28.648C79.1502 28.248 78.6675 27.704 78.3315 27.016C78.0008 26.328 77.8328 25.5493 77.8275 24.68C77.8328 23.7947 78.0062 23.0107 78.3475 22.328C78.6942 21.64 79.1848 21.1013 79.8195 20.712C80.4542 20.3173 81.2088 20.12 82.0835 20.12C83.0648 20.12 83.8942 20.368 84.5715 20.864C85.2542 21.3547 85.6995 22.0267 85.9075 22.88L83.9875 23.4C83.8382 22.936 83.5902 22.576 83.2435 22.32C82.8968 22.0587 82.5022 21.928 82.0595 21.928C81.5582 21.928 81.1448 22.048 80.8195 22.288C80.4942 22.5227 80.2542 22.848 80.0995 23.264C79.9448 23.68 79.8675 24.152 79.8675 24.68C79.8675 25.5013 80.0515 26.1653 80.4195 26.672C80.7875 27.1787 81.3342 27.432 82.0595 27.432C82.5715 27.432 82.9742 27.3147 83.2675 27.08C83.5662 26.8453 83.7902 26.5067 83.9395 26.064L85.9075 26.504C85.6408 27.384 85.1742 28.0613 84.5075 28.536C83.8408 29.0053 83.0248 29.24 82.0595 29.24ZM87.6706 29V17.48H89.5986V29H87.6706ZM91.995 29V17.48H99.435V19.288H93.923V22.128H98.475V23.936H93.923V27.192H99.435V29H91.995Z" fill="#4B5689"/>
<circle cx="26.5" cy="23.5" r="22.5" stroke="#4B5689" stroke-width="2"/>
<circle cx="15.5" cy="18.5" r="2.5" fill="#4B5689"/>
<circle cx="40" cy="6" r="6" fill="#4B5689"/>
<circle cx="30" cy="46" r="5.5" stroke="#4B5689"/>
<circle cx="13.5" cy="4.5" r="4" stroke="#4B5689"/>
<circle cx="23.5" cy="29.5" r="2.5" fill="#4B5689"/>
<circle cx="5" cy="31" r="5" fill="#4B5689"/>
</svg>
